<?xml version="1.0" encoding="UTF-8" standalone="no"?>
<!-- Created with Inkscape (http://www.inkscape.org/) -->

<svg
   width="14.51538mm"
   height="17.146357mm"
   viewBox="0 0 14.51538 17.146357"
   version="1.1"
   id="svg1"
   xml:space="preserve"
   inkscape:version="1.4.2 (ebf0e940d0, 2025-05-08)"
   sodipodi:docname="login.svg"
   xmlns:inkscape="http://www.inkscape.org/namespaces/inkscape"
   xmlns:sodipodi="http://sodipodi.sourceforge.net/DTD/sodipodi-0.dtd"
   xmlns="http://www.w3.org/2000/svg"
   xmlns:svg="http://www.w3.org/2000/svg"><sodipodi:namedview
     id="namedview1"
     pagecolor="#ffffff"
     bordercolor="#000000"
     borderopacity="0.25"
     inkscape:showpageshadow="2"
     inkscape:pageopacity="0.0"
     inkscape:pagecheckerboard="0"
     inkscape:deskcolor="#d1d1d1"
     inkscape:document-units="mm"
     inkscape:zoom="2.4441213"
     inkscape:cx="-21.27554"
     inkscape:cy="25.366989"
     inkscape:window-width="1362"
     inkscape:window-height="734"
     inkscape:window-x="0"
     inkscape:window-y="0"
     inkscape:window-maximized="1"
     inkscape:current-layer="layer1" /><defs
     id="defs1" /><g
     inkscape:label="Camada 1"
     inkscape:groupmode="layer"
     id="layer1"
     transform="translate(-160.4698,-119.25927)"><path
       style="fill:#ffffff"
       d="m 164.71961,133.40288 c -0.94103,-0.78588 -4.24981,-5.67934 -4.24981,-6.28518 0,-0.76894 0.33513,-1.00116 2.38125,-1.65006 1.82226,-0.57791 5.78677,-1.64264 6.11635,-1.64264 0.50073,0 0.92847,1.87774 1.05242,2.97207 0.0578,0.51009 -0.4597,0.94298 -1.05042,1.24429 -1.79742,0.91681 -2.93794,2.78442 -2.94223,4.81731 -0.002,0.8797 -0.60546,1.13085 -1.30791,0.54421 z"
       id="path1"
       sodipodi:nodetypes="sssssscss" /><path
       id="path3"
       style="fill:#ffffff;stroke-width:0.264583"
       d="m 170.92807,128.29191 c -2.24052,-9e-5 -4.05692,1.81608 -4.05712,4.0566 -9e-5,2.24072 1.8164,4.05721 4.05712,4.05712 2.24072,8e-5 4.0572,-1.8164 4.05711,-4.05712 -2e-4,-2.24052 -1.81659,-4.05668 -4.05711,-4.0566 z m -0.0289,1.26917 c 1.56412,-9e-5 2.83219,1.26775 2.83238,2.83187 1e-4,1.56432 -1.26806,2.83248 -2.83238,2.83239 -1.56433,1e-4 -2.83249,-1.26806 -2.83239,-2.83239 1.9e-4,-1.56412 1.26827,-2.83197 2.83239,-2.83187 z"
       sodipodi:nodetypes="cccccccccc" /><circle
       style="fill:#ffffff;stroke-width:0.264583"
       id="path4"
       cx="163.84755"
       cy="121.90012"
       r="2.6408505" /><rect
       style="fill:#ffffff;stroke-width:0.310737"
       id="rect5"
       width="4.5927835"
       height="1.1099226"
       x="168.44032"
       y="131.85118"
       ry="0.55496132" /><rect
       style="fill:#ffffff;stroke-width:0.247291"
       id="rect5-0"
       width="2.9087629"
       height="1.1099226"
       x="213.19104"
       y="-28.891834"
       ry="0.55496132"
       transform="rotate(45)" /><rect
       style="fill:#ffffff;stroke-width:0.247291"
       id="rect5-0-6"
       width="2.9087629"
       height="1.1099226"
       x="25.905275"
       y="215.1053"
       ry="0.55496132"
       transform="rotate(-45)" /></g></svg>
